<?xml version="1.0" encoding="UTF-8"?>
<svg xmlns="http://www.w3.org/2000/svg" viewBox="0 0 12 12" fill="none">
  <!-- Light-theme toolbar icon: dark stroke (#424242), brand-blue fill (#007acc) -->
  <path fill-rule="evenodd" clip-rule="evenodd" d="M7.26,6.75c.87,0,1.73-.03,2.59-.07-.88-2.94-1.4-6.13-3.66-6.13C2.76.56,3.35,7.93.59,10.61c-1,1,.08,1.26.75.75,2.6-1.76,2.43-4.86,4.86-4.86.41,0,.75.1,1.04.25,0,0,.01,0,.02,0Z" fill="#007acc"/>
  <g>
    <path d="M10.19,10.06h-1.67M6.85,8.63l1,.71-1,.71M5.52,10.29v-2.17c0-.32,0-.48.07-.6.06-.11.17-.19.29-.25.14-.06.33-.06.7-.06h3.87c.37,0,.56,0,.7.06.13.05.23.14.29.25.07.12.07.28.07.6v2.17c0,.32,0,.48-.07.6-.06.11-.17.2-.29.25-.14.06-.33.06-.7.06h-3.87c-.37,0-.56,0-.7-.06-.13-.05-.23-.14-.29-.25-.07-.12-.07-.28-.07-.6Z" stroke="#424242" stroke-linecap="round" stroke-linejoin="round" stroke-width="0.5px" fill="none"/>
  </g>
</svg>
